<?xml version="1.0" encoding="UTF-8" standalone="no"?>
<!DOCTYPE svg  PUBLIC '-//W3C//DTD SVG 1.0//EN'  'http://www.w3.org/TR/2001/REC-SVG-20010904/DTD/svg10.dtd'>
<svg style="shape-rendering:geometricPrecision;text-rendering:geometricPrecision;image-rendering:optimizeQuality" xmlns="http://www.w3.org/2000/svg" fill-rule="evenodd" xml:space="preserve" height="45.734mm" width="17.012mm" version="1.0" clip-rule="evenodd" xmlns:xlink="http://www.w3.org/1999/xlink" viewBox="0 0 584 1570">
 <defs>
  <style type="text/css">
   <![CDATA[
    .fil0 {fill:#b8148a}
   ]]>
  </style>
 </defs>
 <g id="Warstwa_x0020_1">
  <path class="fil0" d="m151 452c-16 0-36 28-51 49-14 21-21 36-29 55-7 19-15 42-18 60-4 17-4 29 0 39 5 9 14 16 20 23 7 8 10 17 10 23-1 5-6 6-9 7-4 1-6 2-8 3s-3 4-5 5-5 1-7 2-3 4-5 5c-2 2-6 2-9 3-3 0-7 0-9 2s-3 6-7 5-11-6-16-16-9-25-8-50c1-26 7-63 11-90 4-26 5-43 15-65s29-49 45-82c17-32 31-70 45-92 15-21 30-26 46-33 16-6 33-14 48-24 16-11 29-25 20-27-9-1-40 10-73 25s-67 33-90 61c-24 27-37 64-42 67-6 4-4-26 4-56 9-30 24-60 20-59-4 0-29 31-31 27-2-3 19-40 45-60 26-21 58-23 86-27 29-3 55-7 72-13 17-5 25-13 28-25 3-13 1-31-5-43s-15-19-18-31c-3-13 2-31 7-48 6-18 13-35 22-47 10-12 23-20 36-23s27-3 43 3c15 5 33 15 44 27 12 13 17 28 17 44 1 16-3 31-8 50-6 19-15 42-22 57-8 15-14 23-14 33s6 21 22 27c17 5 42 5 61 10 20 5 33 15 43 32 11 17 18 41 28 60 9 19 20 31 32 48 11 18 23 39 32 61 10 21 16 43 15 59-2 15-13 25-26 22-13-2-28-17-48-34-19-16-42-34-57-45-15-10-22-14-26-5-5 10-7 32-5 59 3 27 9 59 12 88 3 28 2 53 3 80 0 27 2 57 1 87-2 30-5 61-14 93-8 32-22 67-31 91-9 23-13 37-13 56s4 43 3 68c-1 24-8 48-12 81-5 34-7 77-5 121s8 89 13 115c6 26 11 35 20 43 8 9 20 18 31 25s21 12 27 19c7 7 11 16 6 27-6 12-20 25-38 37-18 13-39 24-59 27-19 4-36 0-45-14-8-14-8-38-6-56s7-29 6-48c0-19-5-46-13-73-9-28-20-55-28-81-7-26-12-49-12-75 0-25 5-52 9-72s7-34 2-19c-6 15-21 58-35 89-15 30-29 47-46 64-16 17-36 34-50 51s-23 33-28 52-5 41-7 64c-1 22-4 46-10 61-7 15-18 21-30 22-11 1-23-3-32-16s-15-35-16-67 2-74 4-98c1-25-1-32 10-39s34-13 50-26c17-13 26-33 33-57s12-51 26-74c14-22 38-39 57-65 18-25 32-60 24-102-7-42-35-92-53-127-17-34-24-54-22-81 3-28 15-65 26-96s22-56 23-85-7-62-17-92c-9-30-19-56-35-56z"/>
 </g>
</svg>
